<?xml version="1.0" encoding="utf-8"?>
<!-- Svg Vector Icons : http://www.onlinewebfonts.com/icon -->
<!DOCTYPE svg PUBLIC "-//W3C//DTD SVG 1.1//EN" "http://www.w3.org/Graphics/SVG/1.1/DTD/svg11.dtd">
<svg version="1.1" xmlns="http://www.w3.org/2000/svg" xmlns:xlink="http://www.w3.org/1999/xlink" x="0px" y="0px" viewBox="0 0 1000 1000" enable-background="new 0 0 1000 1000" xml:space="preserve">
<metadata> Svg Vector Icons : http://www.onlinewebfonts.com/icon </metadata>
<g><g transform="translate(0.000000,512.000000) scale(0.100000,-0.100000)"><path d="M2022.8,5000.5c-214.5-61.3-423.3-231.8-521-425.2c-141.8-283.5-111.1-607.2,82.4-862c90-118.8,272-247.1,398.4-281.6l80.5-21.1v-176.2v-176.2l-76.6-13.4c-42.1-7.7-76.6-19.2-76.6-24.9c0-7.7,34.5-136,76.6-287.3l76.6-272V-182.8v-2643.4h-162.8h-162.8v-488.4v-488.4h-162.8h-162.8v-488.5V-4780h814.1H3040v488.4v488.5h-162.8h-162.8v488.4v488.4h-162.8h-162.8V-792c0,1118.7,3.8,2028.5,7.7,2024.7c3.8-3.8,44.1-145.6,88.1-314.1s91.9-333.3,105.4-367.8c19.2-42.1,1599.4-2191.3,1708.6-2323.5c23-24.9,749,199.2,1126.3,348.6c612.9,243.3,1168.4,614.9,1789.1,1197.2l141.7,132.2l-521,1338.9c-563.1,1448.1-549.7,1419.4-727.9,1507.5c-78.5,38.3-116.8,42.1-337.1,42.1c-136,0-308.4-3.8-383.1-7.7c-93.9-3.8-553.6,53.6-1513.2,189.6c-758.5,107.3-1402.1,199.2-1430.9,205c-51.7,9.6-53.6,15.3-53.6,124.5c0,95.8,5.7,113,34.5,113c72.8,0,277.7,118.8,379.3,220.3c214.5,212.6,289.2,519.1,201.1,810.2c-72.8,239.4-254.8,432.9-499.9,528.7C2392.5,5021.6,2137.8,5035,2022.8,5000.5z M2465.3,4632.7c170.5-91.9,262.4-270.1,243.3-469.3c-11.5-139.8-82.4-266.3-187.7-342.9c-109.2-78.5-195.4-101.5-335.2-90c-151.3,11.5-272,78.5-350.5,193.5c-197.3,285.4-69,651.3,266.3,760.5C2191.4,4715.1,2360,4690.2,2465.3,4632.7z M3516.9,2698.1c574.6-78.5,1061.2-149.4,1080.3-157.1c24.9-9.6-5.7-30.6-114.9-78.5c-358.2-157.1-860-459.7-1176.1-712.6c-90-70.9-252.8-222.2-360.1-333.3c-107.3-113-199.2-201.1-201.1-197.3c-3.8,1.9-84.3,295-182,647.4c-159,584.2-174.3,657-174.3,810.3c0,159,1.9,166.6,42.1,166.6C2453.8,2843.6,2942.3,2778.5,3516.9,2698.1z M5683.3,2393.5c344.8-46,344.8-46,344.8-82.4c0-72.8-151.3-287.3-325.6-463.6c-450.1-454-1181.9-890.7-1867.6-1118.6c-285.4-93.9-457.8-126.4-662.8-126.4c-212.6,0-285.4,28.7-285.4,116.8c0,226,475,712.6,1057.3,1082.2c239.4,151.3,660.8,367.8,902.2,461.6c228,90,528.7,176.2,578.5,166.6C5445.8,2426.1,5562.7,2410.7,5683.3,2393.5z M2388.7-3477.5v-325.6h-162.8h-162.8v325.6v325.6h162.8h162.8V-3477.5z M2714.3-4291.6v-162.8h-488.4h-488.4v162.8v162.8h488.4h488.4V-4291.6z"/><path d="M7378.5-521.9c-199.2-180-544-461.6-737.5-603.4c-385-277.7-668.5-432.9-1130.1-614.9c-224.1-88.1-863.9-300.7-906-300.7c-13.4,0-34.5-7.7-49.8-17.2c-21.1-13.4,13.4-72.8,160.9-273.9c103.4-139.8,189.6-256.7,193.5-260.5c5.7-9.6,367.8,99.6,649.3,193.4c310.3,105.4,643.6,241.4,840.9,344.8c270.1,139.9,952,607.2,1329.3,907.9c24.9,21.1,11.5,67.1-101.5,354.4c-70.9,182-134.1,337.1-139.8,344.8C7480-441.4,7432.2-474,7378.5-521.9z"/><path d="M7646.7-1621.3c-417.6-314.2-877.3-613-1162.7-756.6c-224.1-113-542.1-237.5-953.9-373.5c-216.4-70.9-388.8-136-386.9-145.6c3.8-7.6,101.5-143.7,218.4-298.8c185.8-254.8,214.5-283.5,254.8-273.9c151.3,38.3,1051.6,440.6,1302.5,582.3c306.5,172.4,930.9,601.5,1126.3,772l72.8,65.1l-107.3,277.7c-59.4,153.2-114.9,287.3-120.7,300.7C7880.4-1456.6,7798-1508.3,7646.7-1621.3z"/><path d="M8077.7-2502.5c-197.3-157.1-773.9-542.1-1005.6-674.2c-201.1-113-720.2-352.5-1066.9-494.2c-114.9-44.1-206.9-88.1-206.9-95.8c0-9.6,118.8-176.2,264.3-373.5c287.3-392.7,348.6-448.2,536.3-488.4c304.6-63.2,833.2,116.8,1363.8,465.5c235.6,153.2,492.3,408,567,561.2c86.2,178.1,78.6,304.6-32.5,584.2c-49.8,120.7-126.4,312.2-170.5,427.1c-44.1,113-86.2,205-91.9,203.1C8227.1-2387.5,8156.2-2439.3,8077.7-2502.5z"/></g></g>
</svg>