<?xml version="1.0" encoding="utf-8"?>
<!-- Svg Vector Icons : http://www.onlinewebfonts.com/icon -->
<!DOCTYPE svg PUBLIC "-//W3C//DTD SVG 1.1//EN" "http://www.w3.org/Graphics/SVG/1.1/DTD/svg11.dtd">
<svg version="1.1" xmlns="http://www.w3.org/2000/svg" xmlns:xlink="http://www.w3.org/1999/xlink" x="0px" y="0px" viewBox="0 0 1000 1000" enable-background="new 0 0 1000 1000" xml:space="preserve">
<metadata> Svg Vector Icons : http://www.onlinewebfonts.com/icon </metadata>
<g><path style=" fill:rgba(255, 255, 255, 0.6); "  d="M908.6,521.4l81.4-21.3l-81.4-21.4C897.7,269.8,730.1,102.2,521.3,91.4L500,10l-21.3,81.4C269.8,102.2,102.3,269.9,91.4,478.7L10,500.1l81.4,21.3c10.8,208.9,178.4,376.4,387.2,387.2L500,990l21.3-81.4C730.2,897.8,897.7,730.2,908.6,521.4z M499.9,845.9c-190.6,0-345.8-155.1-345.8-345.8c0-190.7,155.2-345.9,345.8-345.9c190.8,0,345.9,155.2,345.9,345.9C845.8,690.7,690.7,845.9,499.9,845.9z M562.8,500.3l-60.3-297.6l-65.5,296.4H437v0.4v0.2h0.1l60.3,297.6l65.5-296.4h0.1l-0.1-0.4l0.1-0.2H562.8z M461.5,499.4l40.8-184l37.3,184.7L461.5,499.4z M303.2,458h8.9L288.7,542h-8.3H272l-13.4-66.1L245.3,542H237h-8.4L205.3,458h9.1h9.2l14,61.6l12.1-61.6h9.3h9.4l12.1,61l14-61H303.2z M794.7,527.1v7.5v7.4h-63.8v-84.1h61.8v7.4v7.4h-44.2v18h41.1v7.1v7.3h-41.1v21.9H794.7z"/></g>
</svg>